<svg xmlns="http://www.w3.org/2000/svg" width="31" height="36.293" viewBox="0 0 31 36.293">
  <path id="Esclusione_28" data-name="Esclusione 28" d="M15,35.293a3.689,3.689,0,0,1-2.65-1.118l-7.957-8.1A15.2,15.2,0,0,1,1.1,21.02a15.586,15.586,0,0,1,0-11.495,15.2,15.2,0,0,1,3.3-5.053A14.889,14.889,0,0,1,9.355,1.118a14.8,14.8,0,0,1,11.289,0,14.889,14.889,0,0,1,4.962,3.355,15.2,15.2,0,0,1,3.3,5.053,15.586,15.586,0,0,1,0,11.495,15.2,15.2,0,0,1-3.3,5.053l-7.955,8.1A3.689,3.689,0,0,1,15,35.293ZM14.694,9.718a5.331,5.331,0,1,0,5.2,5.329A5.274,5.274,0,0,0,14.694,9.718Z" transform="translate(0.5 0.5)" fill="#fc9403" stroke="#a36d22" stroke-linecap="round" stroke-linejoin="round" stroke-width="1"/>
</svg>
