<svg xmlns="http://www.w3.org/2000/svg" width="50" height="57.293" viewBox="0 0 50 57.293">
  <path id="Sottrazione_10" data-name="Sottrazione 10" d="M24.5,56.293a6.1,6.1,0,0,1-4.329-1.784l-13-12.922a24.263,24.263,0,0,1,0-34.452,24.6,24.6,0,0,1,34.649,0,24.265,24.265,0,0,1,0,34.452L28.831,54.509A6.1,6.1,0,0,1,24.5,56.293ZM15.065,14.98a3.342,3.342,0,0,0-3.348,3.329V31.625a3.342,3.342,0,0,0,3.348,3.329H25.109a3.342,3.342,0,0,0,3.348-3.329V18.309a3.342,3.342,0,0,0-3.348-3.329Zm21.761,3.33a1.689,1.689,0,0,0-.748.176L32.731,20.15a1.652,1.652,0,0,0-.927,1.488V28.3a1.652,1.652,0,0,0,.927,1.488l3.347,1.664a1.7,1.7,0,0,0,.749.175,1.676,1.676,0,0,0,.878-.247,1.658,1.658,0,0,0,.8-1.416V19.973a1.653,1.653,0,0,0-.8-1.414A1.672,1.672,0,0,0,36.826,18.31Z" transform="translate(0.5 0.5)" fill="#5072fa" stroke="#1d307e" stroke-linecap="round" stroke-linejoin="round" stroke-width="1"/>
</svg>
